<?xml version="1.0" encoding="UTF-8"?>
<svg id="_레이어_2" data-name="레이어 2" xmlns="http://www.w3.org/2000/svg" viewBox="0 0 483.39 483.39">
  <defs>
    <style>
      .cls-1 {
        fill: #173420;
      }

      .cls-2 {
        fill: #16331f;
      }

      .cls-3 {
        fill: #fefefe;
      }

      .cls-4 {
        fill: #16321f;
      }

      .cls-5 {
        fill: #fff;
      }

      .cls-6 {
        fill: #173320;
      }

      .cls-7 {
        fill: #173220;
      }

      .cls-8 {
        fill: #163220;
      }

      .cls-9 {
        fill: #183624;
      }

      .cls-10 {
        fill: #fefffe;
      }

      .cls-11 {
        fill: #17321f;
      }

      .cls-12 {
        fill: #df9f1f;
      }

      .cls-13 {
        fill: #173623;
      }
    </style>
  </defs>
  <g id="_레이어_1-2" data-name="레이어 1">
    <g id="_생성형_오브젝트" data-name="생성형 오브젝트">
      <rect class="cls-3" width="483.39" height="483.39"/>
      <g>
        <path class="cls-6" d="M116.85,382.18c5.49-.61,5.87-6.78,7.19-6.84.31-.01.92.13.81.62l-1.98,8.55-29.85-.02c-.39,0-.39-.58-.31-.82.28-.87,2.26-.29,3.91-1.28,1.04-.63,1.71-1.93,1.71-3.27v-30.1c0-1.36-.81-2.62-1.85-3.13-1.15-.56-2.24-.47-3.51-.63-.35-.05-.35-1.35.03-1.35l16.31-.06c1.07,2.35-1.79.94-3.94,2.04-.97.5-1.49,1.79-1.5,3.02l-.03,28.94c0,2.33,1.21,3.95,3.57,4.31,3.06.48,6.31.36,9.45.01Z"/>
        <path class="cls-7" d="M287.61,375.53c.21-.4.73-.4.95-.34.41.11.5.52.38,1.04l-1.98,8.28-28.21-.02c-.28-.12-.21-1.16.12-1.22l2.8-.52c1.31-.24,2.18-1.53,2.18-3.04l.02-29.64c0-1.21-.4-2.55-1.24-3.21-1.79-1.42-4.75.06-3.69-2.33l15.29-.07c.51,0,.56,1.25.06,1.36-1.3.29-2.67.13-3.84.92-.72.49-1.25,1.74-1.25,2.76v28.39c.01,2.85,1.54,4.22,4.37,4.49,2.5.24,4.94.14,7.41-.13,2.06-.22,3.82-1.27,4.75-3.07l1.89-3.64Z"/>
        <path class="cls-4" d="M160.49,366.43c-1.24,3.36-1.11,7.07.27,10.23,1.19,2.74,3.73,4.26,6.32,4.75,3.01.57,5.83-.53,7.96-2.68.34-.35.66-.4.99-.2.42.25.38.67.11,1.11-2.31,3.87-6.6,5.99-11.07,5.45s-8.08-3.38-9.49-7.72c-.84-2.59-.84-5.26-.24-7.94,1.1-4.89,4.89-8.57,9.82-9.52,2.93-.57,5.89-.27,8.61.9,1.89.81,2.65,3.23,1.37,4.79-.52.63-1.39.63-2.13.4-1.95-.6-1.89-4.71-5.94-4.42-2.9.21-5.52,1.92-6.6,4.84Z"/>
        <path class="cls-4" d="M192.11,382.13c2.1-.2,4.21-2.46,4.02-.57-.03.33-.26.64-.57.92-2.1,1.85-4.57,2.88-7.36,2.63s-5.01-2.36-5.02-5.39l-.08-17.12-3.29-.07c-.29,0-.28-.98.07-1.15,2.79-1.38,4.69-3.61,6.19-6.32.36-.64.73-1.37,1.62-1.3l.05,6.1,7.71.07c.28.84.3,1.77,0,2.63l-7.74.05.08,15.8c.01,2.42,2.05,3.94,4.32,3.72Z"/>
        <path class="cls-8" d="M370.56,380.12c0,2.09,1.38,3.17,3.36,3.17.32,0,.78.11,1,.25.24.16.2,1.13-.16,1.12h-12.41c-.27-.01-.33-.77-.21-.98.44-.76,3.82.12,3.81-3.22l-.05-13.66c-.01-2.77-2.76-2.06-2.78-3.2,0-.45.34-.48.73-.7l5.07-2.76c1.5-.81.74,2.25,1.33,4.43,1.55-2.09,3.33-3.88,5.71-4.34,1.42-.27,2.84.14,3.53,1.26.65,1.06.71,2.78-.36,3.68s-2.46.39-3.43-.44c-1.38-1.17-3.42-1.12-4.32.48-.58,1.03-.8,2.23-.8,3.45l-.02,11.44Z"/>
        <path class="cls-4" d="M199.3,384.6c-.51,0-.48-.88-.24-1.05.85-.59,3.63.04,3.63-2.87v-14.13c.02-3.39-3.11-3.01-3.08-3.9,0-.27.23-.45.56-.58l7.17-2.76.19,22.06c.01,1.72,3.13,1.74,3.62,2.15.19.16.17.95-.08,1.07h-11.77Z"/>
        <path class="cls-4" d="M292.09,383.53c1.05-.62,3.74-.13,3.74-2.6v-14.86c0-1.33-.94-2.43-2.24-2.52-.46-.03-1.11-1.04-.67-1.21l7.51-2.91.07,21.04c.01,3.1,3.08,2.46,3.71,3.02.19.18.12,1.1-.2,1.1h-11.85c-.23,0-.34-.89-.08-1.05Z"/>
        <circle class="cls-1" cx="204.79" cy="351.05" r="3.1"/>
        <circle class="cls-6" cx="298.03" cy="351.11" r="3.05"/>
        <g>
          <path class="cls-4" d="M320.81,385.1c-3,.11-5.59-.55-8.31-1.67-.69.63-1.21,1.35-2.21,1.33v-32.52c0-1.67-.82-2.81-2.4-3.3l-.57-.27c-.14-.07-.21-.73-.05-.79l7.61-2.71.04,17.4c4.31-3.56,10.5-3.66,14.6.17,2.58,2.41,3.69,5.71,3.67,9.23.16,7.1-5.2,12.87-12.38,13.12Z"/>
          <path class="cls-5" d="M316.54,381.75c-1.2-1.05-1.63-2.61-1.63-4.11l-.05-11.81c0-.81.29-1.63,1.01-2.07,4-2.47,9.11-.83,11.07,3.5,2.47,5.46,1.61,13.96-4.08,15.78-2.26.72-4.57.24-6.32-1.29Z"/>
        </g>
        <g>
          <circle class="cls-2" cx="227.44" cy="372.4" r="12.75"/>
          <path class="cls-5" d="M232.9,380.28c-1.84,3.26-5.66,4.15-8.67,2.05-5.56-3.86-5.73-17.75.72-20.46,2.55-1.07,5.16-.03,6.93,2.01,3.44,3.96,3.76,11.53,1.02,16.39Z"/>
        </g>
        <g>
          <path class="cls-11" d="M388.63,385.16c-3.69.2-6.27-2.7-5.89-6.15.23-2.06,1.38-3.66,3.32-4.31l9.49-3.18c.09-2.13.24-4.19-.16-6.14-.45-2.21-2.18-3.34-4.28-3.11-2.24.24-3.52,1.78-3.41,4.02.05.93-.81,1.59-1.41,1.81-.84.3-2.16.43-2.7-.39s-.28-2.09.38-2.86c3.47-4.03,9.22-6.47,13.62-3.6,1.58,1.03,2.31,2.93,2.32,4.79l.08,13.95c0,.99.55,1.84,1.26,2.26,1.66.98,2.92-1.09,3.53,0,.24.43.14.59-.35.95-1.4,1.03-2.83,1.84-4.6,1.88-1.96.04-3.4-1.06-4.04-3.03-2.11,1.71-4.37,2.97-7.17,3.12Z"/>
          <path class="cls-10" d="M395.52,379.88c-1.34,2.07-4.05,2.96-6.33,2.07-1.4-.73-1.85-2.17-1.8-3.67.05-1.4,1.06-2.77,2.54-3.24l5.67-1.78-.08,6.61Z"/>
        </g>
        <g>
          <path class="cls-4" d="M357.56,378.76c.32-.37.62-.37.78-.29.68.35-.07,1.97-1.11,3.11-3.96,4.31-10.72,4.85-15.26,1.06-2.56-2.13-3.77-5.21-4.03-8.54-.4-5.13,1.85-10.19,6.36-12.8,3.08-1.79,7.05-1.73,10.17-.13s4.39,4.98,3.88,8.29l-15.79.05c-.63,5.35,1.7,10.81,7,11.89,2.98.61,6.02-.36,8-2.63Z"/>
          <path class="cls-3" d="M352.51,367.59l-9.74.03c.5-2.37,1.84-4.49,4.02-5.46,1.62-.71,3.38-.72,4.83.26,1.24.84,2.23,2.37,2.13,4.07-.04.61-.51,1.1-1.25,1.1Z"/>
        </g>
        <g>
          <path class="cls-4" d="M140.01,381.15c6.14,1.64,8.61-2.55,9.27-2.66.23-.04.93.23.78.56-2.05,4.39-6.76,6.71-11.53,5.95-3.65-.58-6.79-2.7-8.28-6.13-1.9-4.36-1.65-9.43.67-13.55,2.79-4.98,8.66-7.14,13.93-5.07,3.59,1.41,5.63,5.14,4.82,8.93l-16.09.03c-.59,4.96,1.58,10.64,6.45,11.94Z"/>
          <path class="cls-5" d="M144.32,367.09l-10.39.03c.46-2.63,2.11-4.76,4.52-5.6,1.51-.53,3.11-.32,4.45.52,2.45,1.55,2.76,5.05,1.43,5.06Z"/>
        </g>
        <g>
          <path class="cls-9" d="M322.65,138.5c0-1.57.41-2.42,1.5-3.24l35.19-26.28c.82-.61,2.02-.38,2.67-.05.93.46,1.28,1.31,1.28,2.54l.02,152.11c0,1.68-.97,2.9-2.51,3.37-36.91,11.22-73.54,28.17-105.41,50.01l-12.85,8.8-9.54-6.53c-13.63-9.33-27.7-17.94-42.46-25.47-16.8-8.58-34.08-15.9-51.92-21.91l-16.29-5.23c-1.4-.45-2.13-2.05-2.13-3.53V109.47c0-1.05.8-1.75,1.6-2.03,1.44-.52,2.65-.04,3.84.85l35.6,26.59c1.16.87,1.7,1.69,1.7,3.26l.03,99.02c0,.96.77,1.55,1.46,2.05,12.2,9,23.94,18.47,35.21,28.69,9.53,8.6,18.45,17.7,27.08,27.19l15.9,18.4,21.4-24.38,5.5-5.63,6.75-6.75c14.11-13.6,29-26.14,44.88-37.62.85-.61,1.47-1.31,1.47-2.43v-98.18Z"/>
          <path class="cls-12" d="M223.58,271.98l-5.25-5.02-3.77-3.54-2.82-2.63-12.49-11.12-18.04-15.67c-.59-.52-1.57-1.37-1.58-2.3V84.82c0-.64.28-1.1.62-1.22.53-.19.85.07,1.31.45l52.53,43.39c.64.53,1.66,1.05,1.66,2.03l-.02,99.36-.13,6.3-.02,47.84c-1.83-.83-2.61-2.16-3.91-3.18l-8.09-7.82Z"/>
          <path class="cls-13" d="M254.9,279.09l-4.31,3.99c-.41-.69-.45-1.33-.45-2.28v-147.84c-.01-.92.08-1.67.76-2.26l53.84-46.81c.33-.29.69-.27.91-.17.24.12.65.43.65.93l.03,146.13c0,1.21-.17,2-1.1,2.77-14.59,12.09-28.61,24.69-42.39,37.74l-7.93,7.81Z"/>
        </g>
      </g>
    </g>
  </g>
</svg>